<svg width="12" height="12" viewBox="0 0 12 12" fill="none" xmlns="http://www.w3.org/2000/svg">
<path d="M0 6C0 2.68629 2.68629 0 6 0C9.31371 0 12 2.68629 12 6C12 9.31371 9.31371 12 6 12C2.68629 12 0 9.31371 0 6Z" fill="#7E9CDD"/>
<path d="M2 5.99616C2 5.62797 2.29848 5.32949 2.66667 5.32949H9.33333C9.70153 5.32949 10 5.62797 10 5.99616C10 6.36435 9.70153 6.66282 9.33333 6.66282H2.66667C2.29848 6.66282 2 6.36435 2 5.99616Z" fill="white"/>
<path d="M6.33817 3.00093C6.59851 2.74058 7.02063 2.74058 7.28097 3.00093L9.802 5.52194C10.0623 5.78229 10.0623 6.2044 9.802 6.46475C9.54167 6.7251 9.11953 6.7251 8.8592 6.46475L6.33817 3.94374C6.07781 3.68339 6.07781 3.26128 6.33817 3.00093Z" fill="white"/>
<path d="M9.802 5.5343C9.5416 5.27394 9.11953 5.27394 8.85913 5.5343L6.33815 8.0553C6.0778 8.31566 6.0778 8.73776 6.33815 8.99812C6.5985 9.25846 7.02061 9.25846 7.28096 8.99812L9.802 6.4771C10.0623 6.21676 10.0623 5.79464 9.802 5.5343Z" fill="white"/>
</svg>
