<svg width="24" height="24" viewBox="0 0 24 24" fill="none" xmlns="http://www.w3.org/2000/svg">
<path d="M0.658615 10.145C0.235477 9.00006 -0.0632085 7.8302 0.011463 6.58568C0.0612439 5.81407 0.35993 5.16692 0.932411 4.61933C1.52978 4.04685 2.12715 3.42459 2.72452 2.85211C3.49613 2.0805 4.49175 2.0805 5.26335 2.85211C5.73627 3.32503 6.23408 3.82284 6.707 4.29575C7.17992 4.76867 7.65284 5.2167 8.10087 5.68962C8.92225 6.51101 8.92225 7.48174 8.10087 8.30312C7.52839 8.90049 6.93101 9.47298 6.33364 10.0455C6.1843 10.1948 6.15941 10.3193 6.23408 10.5184C6.63233 11.4642 7.17992 12.2856 7.82707 13.0821C9.09649 14.6502 10.565 16.0441 12.2825 17.1392C12.6558 17.3633 13.0541 17.5375 13.4523 17.7366C13.6514 17.8362 13.7759 17.8113 13.9501 17.6371C14.5226 17.0397 15.12 16.4423 15.7174 15.8449C16.489 15.0733 17.4846 15.0733 18.2562 15.8449C19.202 16.7908 20.1727 17.7366 21.1186 18.7073C21.9151 19.5038 21.9151 20.4995 21.1186 21.296C20.571 21.8435 19.9985 22.3662 19.5007 22.9387C18.754 23.7601 17.833 24.0339 16.7628 23.9841C15.2195 23.9095 13.7759 23.3868 12.4069 22.7147C9.34539 21.2213 6.707 19.1554 4.51664 16.5419C2.87387 14.6253 1.52978 12.5096 0.658615 10.145ZM23.9943 10.6697C23.4262 5.06266 18.9772 0.598371 13.3771 0.00657793C12.7011 -0.0648657 12.1082 0.454497 12.1082 1.13432V1.15606C12.1082 1.7384 12.5497 2.2223 13.1288 2.28332C17.6421 2.75883 21.2546 6.35138 21.7361 10.88C21.7981 11.4637 22.2888 11.9068 22.8758 11.9003C23.5354 11.8931 24.0608 11.326 23.9943 10.6697ZM12.1082 5.43118V5.44707C12.1082 5.98978 12.4884 6.47213 13.0233 6.56376C14.1226 6.75204 15.1395 7.27728 15.9414 8.07911C16.7432 8.88094 17.2684 9.89789 17.4567 10.9972C17.5483 11.5321 18.0307 11.9122 18.5734 11.9122H18.5834C19.2834 11.9122 19.827 11.2827 19.7046 10.5935C19.1363 7.39322 16.6069 4.86316 13.4225 4.30926C12.7346 4.18962 12.1082 4.733 12.1082 5.43118Z" fill="#E65796"/>
</svg>
