<?xml version="1.0" encoding="UTF-8"?>
<svg xmlns="http://www.w3.org/2000/svg" width="24" height="24" viewBox="0 0 24 24" fill="none">
  <path d="M12 0C5.37259 0 0 5.37427 0 12.0005C0 18.6282 5.3721 24 12 24C18.6274 24 24 18.6282 24 12.0005C24 5.37427 18.6269 0 12 0ZM18.8945 14.5541C18.5548 15.7247 17.913 16.8138 17.0134 17.6404C16.1626 18.4259 15.0969 18.9644 13.9702 19.2237C12.7241 19.5073 11.406 19.5146 10.1677 19.1827C9.18322 18.9194 8.26366 18.4557 7.46656 17.8207C6.62284 17.1481 5.93405 16.3016 5.44715 15.3387C4.70131 13.8534 4.47417 12.1611 4.80195 10.5317C4.93289 9.88279 5.15022 9.25439 5.44812 8.66326C6.30384 6.95029 7.84666 5.59503 9.65848 4.97466C11.2666 4.41813 13.0687 4.4308 14.6661 5.01852C15.553 5.34454 16.3653 5.85965 17.0578 6.50049C16.8263 6.75244 16.5749 6.98684 16.3356 7.23148C15.8795 7.68713 15.4248 8.14425 14.9677 8.59844C14.5138 8.16442 13.9651 7.84207 13.365 7.65692C12.6566 7.44444 11.9061 7.41394 11.1828 7.56823C10.3385 7.75406 9.567 8.18261 8.96309 8.80117C8.47654 9.29697 8.10779 9.89591 7.88418 10.5536C7.56512 11.4921 7.5646 12.5096 7.88272 13.4483C8.19602 14.3697 8.79225 15.1685 9.58636 15.731C10.0826 16.0812 10.6461 16.3244 11.2413 16.4454C11.8251 16.5638 12.4298 16.5507 13.0151 16.4513C13.5997 16.3525 14.1572 16.1322 14.6515 15.8046C15.0412 15.5417 15.3739 15.2029 15.6296 14.8084C15.8853 14.4139 16.0588 13.9719 16.1397 13.5088H12.0892C12.0872 12.5419 12.0892 11.5746 12.0887 10.6077C14.4203 10.607 16.7519 10.607 19.0835 10.6077C19.316 11.9147 19.2648 13.2778 18.8945 14.5541Z" fill="#117D5A"></path>
</svg>
