<svg width="112" height="26" viewBox="0 0 112 26" fill="none" xmlns="http://www.w3.org/2000/svg">
<path d="M7.90745 7.92068C10.3283 7.6846 13.7436 9.16668 13.7436 9.16668C13.7436 9.16668 12.4612 2.81865 13.9922 2.67437C15.5232 2.5301 17.8525 2.01858 18.389 3.36951C18.9385 4.70732 19.3835 6.33367 19.3835 6.33367C19.3835 6.33367 25.3635 6.50418 26.502 7.17308C27.6404 7.84198 27.8891 4.81224 27.4965 3.50066C27.1039 2.18909 27.8891 1.0349 29.2238 1.21852C30.5585 1.40214 32.6522 0.903742 32.8485 3.82856C33.0448 6.75338 34.0131 14.0982 34.0131 14.0982C34.0131 14.0982 37.2975 18.269 34.6281 19.397C31.9587 20.5381 29.9173 20.3282 29.9173 20.3282C29.9173 20.3282 26.4235 21.889 25.1411 20.3413C23.8587 18.7937 22.7072 10.9111 21.6211 11.1078C20.535 11.3045 20.4826 12.5899 20.4826 13.2326C20.4826 13.8752 21.8174 21.7185 20.9799 21.8365C20.1424 21.9546 16.3214 22.2038 15.6933 21.1938C15.0652 20.1708 13.7174 24.3416 10.747 24.0662C7.77659 23.7908 0.710404 21.9152 0.998286 17.2066C1.29925 12.4981 4.02104 8.07807 5.19874 7.9338C6.37644 7.77641 7.90745 7.92068 7.90745 7.92068Z" fill="white"/>
<path d="M44.0104 7.15977C46.8761 7.08108 49.153 8.13034 49.153 8.13034C49.153 8.13034 53.4058 7.02861 55.2378 7.15977C57.0698 7.29093 60.5767 9.2583 60.5767 9.2583C60.5767 9.2583 61.9637 1.70361 67.1064 2.33317C72.249 2.96273 70.9143 7.15977 70.9143 7.15977L77.1953 8.13034C77.1953 8.13034 81.7883 7.02861 83.6203 7.15977C85.4523 7.29093 86.6169 8.66809 86.6169 8.66809C86.6169 8.66809 89.849 6.9368 91.8118 6.9368C93.7747 6.9368 96.0385 7.15977 96.0385 7.15977C96.0385 7.15977 95.7898 2.71353 97.0068 2.71353C98.2238 2.71353 101.482 2.51679 101.482 4.15626C101.482 5.79573 101.992 7.42209 101.992 7.42209C101.992 7.42209 104.4 5.58588 106.638 7.17289C108.875 8.7599 109.608 9.75669 109.948 11.7109C110.289 13.6652 110.249 22.6888 110.249 22.6888C110.249 22.6888 106.782 24.0398 105.656 22.1249C104.518 20.21 105.8 12.0782 103.877 12.2225C101.953 12.3667 101.691 12.5504 101.508 14.4521C101.312 16.3539 101.26 23.1479 101.26 23.1479L96.6142 21.8232C96.6142 21.8232 93.8008 23.2135 91.838 23.1479C89.8752 23.0823 86.9702 21.8232 86.9702 21.8232C86.9702 21.8232 83.725 24.0267 81.3696 23.3315C79.0142 22.6364 74.9315 20.1706 74.2511 18.2688C73.5837 16.3802 72.7986 22.6757 72.7986 22.6757C72.7986 22.6757 68.9907 22.3741 67.7868 21.692C66.5699 21.01 66.3997 22.5708 65.065 22.5708C63.7303 22.5708 60.6683 21.1543 60.6683 21.1543C60.6683 21.1543 58.1951 23.4102 54.6359 23.1086C51.0766 22.8069 48.9306 21.5084 48.9306 21.5084C48.9306 21.5084 45.633 23.7643 43.0159 23.3053C40.3988 22.8462 38.0696 21.3248 37.9256 19.3443C37.7817 17.3507 38.8024 16.7081 38.8024 16.7081C38.8024 16.7081 36.7479 14.0587 37.3891 11.6978C38.0303 9.33699 44.0104 7.15977 44.0104 7.15977Z" fill="white"/>
<path d="M8.0776 11.711C6.16711 11.9733 5.40815 13.6915 5.70912 15.908C6.07551 18.5705 7.25321 20.0264 9.46467 19.7378C11.4013 19.4755 12.1341 17.7573 11.8331 15.567C11.4798 12.8652 10.2629 11.4093 8.0776 11.711ZM81.4874 10.7797C79.8517 10.7797 78.7264 12.1176 78.6479 13.6652L78.6217 14.1112H80.1265C83.3063 14.1112 84.0391 13.757 84.0391 12.7996C84.0391 11.4487 83.0446 10.7797 81.4874 10.7797ZM111.401 20.9838L111.388 13.8882C111.388 11.8684 110.59 8.65499 108.483 7.17291C107.554 6.53024 106.415 6.11053 105.382 5.92691C103.981 5.67771 102.817 5.79576 102.817 5.79576C102.817 5.23178 102.621 3.80216 101.809 2.91029C100.828 1.84791 99.1529 1.45444 98.2762 1.45444C98.2762 1.45444 96.5227 1.34951 95.7245 2.11023C94.8739 2.91029 94.9786 4.54976 94.9786 4.54976V6.17611C94.115 5.88757 93.1597 5.71706 92.126 5.71706C90.1501 5.71706 88.2788 6.45154 86.7478 7.50081C85.5963 6.43843 83.9606 5.71706 81.7753 5.71706C80.1265 5.71706 78.5039 6.20235 77.0514 7.00241C76.8682 6.84502 76.685 6.70074 76.4888 6.56959C75.6382 5.99249 74.3166 5.84822 73.6099 5.84822C73.0734 5.84822 72.5238 5.96626 72.0004 6.163C72.0004 5.8351 72.0004 5.62525 72.0004 5.62525C72.0004 4.28744 71.2676 1.20524 67.1719 1.20524C65.209 1.20524 62.906 2.03153 61.5713 3.51361C60.5244 4.68092 60.0141 6.21546 59.8047 7.35653C58.3653 6.35973 56.6118 5.71706 54.6359 5.71706C52.6338 5.71706 50.8019 6.37285 49.2447 7.409C48.2109 6.47778 46.2874 5.65148 44.2198 5.65148C42.7673 5.65148 40.2157 6.24169 38.7893 7.34342C36.8265 8.86485 36.1984 11.1995 36.1984 12.6684C36.1984 13.9144 36.5517 15.1866 37.4808 16.0785C37.2453 16.3277 36.9705 16.7605 36.8265 17.2721C36.5517 18.282 36.5648 19.4886 36.5648 19.4886C36.5648 20.0526 36.9181 21.6134 37.9126 22.5052C39.352 23.8037 41.7467 24.407 43.2253 24.407C44.9395 24.407 47.3604 23.8299 48.9961 22.6364C50.5532 23.6857 52.4245 24.3677 54.4789 24.3677C56.7558 24.3677 58.7317 23.5414 60.302 22.2823C61.1787 23.2266 62.5265 24.066 63.9397 24.066C64.8296 24.066 65.6801 24.1054 66.282 23.725C66.7531 23.4234 67.1064 22.9643 67.3551 22.5577C68.2449 23.4102 69.7105 24.0791 71.0844 24.0791C72.1444 24.0791 73.2305 23.8693 73.7539 23.1873C74.2904 22.4921 74.238 21.3117 74.238 21.3117L74.225 20.0526C74.7746 20.8789 75.5204 21.8101 76.4364 22.5839C77.9805 23.8693 80.3621 24.3808 81.8015 24.3808C83.6335 24.3808 85.4393 23.8693 86.9703 23.1479C88.3704 23.8562 89.993 24.3546 91.5764 24.3546C93.0812 24.3546 94.8478 23.8431 96.4965 23.0561C97.3864 23.6201 98.3939 24.0267 99.0875 24.0267C100.645 24.0267 101.194 24.3152 102.123 23.5283C102.804 22.9512 102.804 21.2199 102.804 21.2199V14.0587C102.804 14.0587 102.765 13.1799 103.196 13.1799C103.628 13.1799 103.563 14.0456 103.563 14.0456V19.5804C103.563 20.3543 103.89 22.0331 104.897 23.0036C105.787 23.8562 107.344 24.066 107.999 24.066C107.999 24.066 109.818 24.289 110.642 23.5283C111.532 22.7413 111.401 20.9838 111.401 20.9838ZM54.7537 22.138C51.7964 22.138 49.755 20.4198 48.8652 18.0983C48.6297 20.6428 46.6537 22.138 43.2515 22.138C40.7653 22.138 38.9202 20.8527 38.9202 19.4755V17.941H39.0511C39.7838 18.623 41.5111 19.2263 43.1076 19.2263C44.7563 19.2263 45.5676 18.7541 45.5676 17.7442C45.5676 16.9704 45.0966 16.59 42.7543 16.2621C39.9016 15.8556 38.5145 14.7276 38.5145 12.6684C38.5145 10.124 40.7914 7.97297 44.2591 7.97297C47.3211 7.97297 48.5773 9.55998 48.5773 10.8584V12.1438H48.4465C47.7398 11.4355 46.1958 10.8847 44.5862 10.8847C42.5318 10.8847 41.8775 11.5142 41.8775 12.393C41.8775 13.075 42.2832 13.3504 44.5862 13.7308C46.4313 14.0325 47.7137 14.662 48.381 15.685C48.381 15.567 48.368 15.449 48.368 15.3178C48.368 11.2519 50.6972 7.97297 55.0677 7.97297C59.1243 7.97297 61.4666 11.2388 61.4666 14.8325C61.4535 18.8984 59.1112 22.138 54.7537 22.138ZM91.367 22.138C88.8808 22.138 87.0357 20.8527 87.0357 19.4755V17.941H87.1666C87.8994 18.623 89.6266 19.2263 91.2231 19.2263C92.8718 19.2263 93.6832 18.7541 93.6832 17.7442C93.6832 16.9704 93.2121 16.59 90.8698 16.2621C88.9069 15.9867 87.6507 15.3703 87.0488 14.3472C86.4992 15.9605 84.5756 16.5113 80.8724 16.5113H78.661C78.9096 18.2164 80.4668 19.305 82.4427 19.305C83.8428 19.305 85.5047 19.0296 86.5777 18.0197H86.7086V19.0689C86.7086 20.8002 85.5309 22.138 81.8146 22.138C78.4516 22.138 75.1671 19.4755 75.1671 15.3309C75.1671 13.8357 75.4681 12.5373 76.0046 11.4487C75.5728 11.2913 75.0494 11.1601 74.3427 11.1601C72.8379 11.1601 72.0135 11.9864 72.0135 14.0456V21.8363H71.0844C69.5796 21.8363 68.6244 21.0887 68.6244 19.6722V13.4423C68.6244 12.9176 68.6767 12.393 68.7945 11.8946C68.3365 12.4717 67.5121 12.7865 66.7531 12.7865H65.3006V21.8363H63.9528C62.8798 21.8363 61.9246 21.01 61.9246 19.8296V8.47137C61.9246 6.55647 63.2593 3.5005 67.185 3.5005C68.6374 3.5005 69.7628 4.30056 69.7628 5.63837V6.76632H69.6581C69.1347 6.59582 68.5328 6.46466 67.7084 6.46466C66.3344 6.46466 65.3006 6.93683 65.3006 8.74681V9.95346H69.1609V10.806C69.8544 9.25832 71.2807 8.14348 73.623 8.14348C75.7036 8.14348 76.4364 9.3239 76.4364 10.36V10.7273C77.601 8.96977 79.5115 7.97297 81.8015 7.97297C83.9999 7.97297 86.0805 9.20586 86.8787 11.2913C87.546 9.38948 89.5743 7.97297 92.3877 7.97297C95.4497 7.97297 96.7059 9.55998 96.7059 10.8584V12.1438H96.5751C95.8684 11.4355 94.3243 10.8847 92.7148 10.8847C90.6604 10.8847 90.0061 11.5142 90.0061 12.393C90.0061 13.075 90.4118 13.3504 92.7148 13.7308C95.5282 14.1767 97.0331 15.4096 97.0331 17.5737C97.0069 20.4198 94.9917 22.138 91.367 22.138ZM109.137 21.8363H108.038C106.638 21.8363 105.761 21.0363 105.761 19.5804V14.0456C105.761 11.829 104.557 10.9503 103.079 10.9503C102.032 10.9503 100.645 11.7503 100.645 14.1374V21.8232H99.5455C97.9621 21.8232 97.2424 20.9445 97.2424 19.5673V3.73658H98.2893C99.8988 3.73658 100.671 4.64157 100.671 5.90068C100.671 5.90068 100.671 8.56318 100.671 9.76984C101.168 8.96977 102.32 7.95986 103.602 7.95986C107.083 7.95986 109.137 10.0453 109.137 13.8882V21.8363ZM35.0731 13.98C35.0861 13.9538 35.0861 13.9144 35.0992 13.8751C35.1516 13.5996 35.0861 13.1012 35.0861 13.1012L34.144 4.01201C34.0786 3.40869 33.6206 1.57248 32.5475 0.772417C31.2913 -0.158803 29.3678 -0.0276447 28.7266 0.0641657C28.7266 0.0641657 27.1563 0.274018 26.5151 0.942922C25.7692 1.71675 25.9655 2.97587 25.9655 2.97587L26.3843 5.50721C26.2534 5.42852 24.8402 4.65468 23.4531 4.47106C21.8567 4.26121 20.2995 4.78584 20.2995 4.78584C20.2995 4.78584 20.2602 4.53664 20.2341 4.47106C20.0378 3.68412 19.5798 2.39877 18.6769 1.74298C17.5254 0.903574 15.6934 1.03473 14.8821 1.13966C14.8821 1.13966 13.3903 1.28393 12.7753 1.93972C12.0687 2.70043 12.2388 3.98578 12.2388 3.98578L12.736 7.27784C11.2966 6.47778 9.55627 6.12365 7.59344 6.38597C1.87506 7.1598 -0.598108 11.8552 0.121596 17.1934C0.762788 21.9019 4.67536 25.6793 9.98809 24.9448C12.4743 24.6038 14.2932 23.5414 15.4971 22.02C16.1775 23.0168 18.232 23.4627 19.5798 23.2791C19.5798 23.2791 21.0846 23.3184 21.8567 22.479C22.2754 22.02 22.3932 21.1674 22.4324 20.6428C22.4455 20.4723 22.4063 19.9608 22.3277 19.3312C22.066 17.4163 21.4379 12.9439 21.4379 12.9439C21.4379 12.9439 21.15 12.0126 21.5819 11.9471C22.0006 11.8815 22.0791 12.9176 22.0791 12.9176L23.0605 19.3181C23.1652 20.0526 23.8849 21.115 24.9579 21.6658C27.0647 22.7413 29.6426 21.8101 29.5379 21.8626C30.0351 21.6527 30.4539 21.1674 30.4539 21.1674V21.1543C31.1605 21.456 31.9456 21.5871 32.7569 21.4822C35.1123 21.1674 36.8003 18.9378 36.4732 16.5769C36.3162 15.567 35.8058 14.6489 35.0731 13.98ZM9.58244 22.7676C5.56518 23.3184 2.81722 20.4198 2.33305 16.8655C1.78346 12.8389 3.65469 9.28455 7.97292 8.69434C11.9902 8.14348 14.7381 11.0683 15.2223 14.6227C15.7719 18.6492 13.9007 22.1774 9.58244 22.7676ZM27.6274 20.0001C26.2403 20.1838 25.2589 19.5149 25.0626 18.0721L24.3167 12.5897C24.0158 10.3994 22.7072 9.69114 21.2416 9.88788C20.1948 10.0322 18.9386 11.0158 19.2657 13.3767L20.2995 20.9969L19.2003 21.1412C17.63 21.3511 16.7926 20.5772 16.6094 19.2132L14.4895 3.53984L15.5364 3.39557C17.1197 3.18572 18.0226 3.97266 18.1796 5.21866C18.1796 5.21866 18.5329 7.85493 18.7031 9.04847C19.0956 8.18283 20.1032 7.02864 21.3594 6.85813C24.814 6.38597 27.1301 8.18283 27.6405 11.9864L28.7004 19.8559L27.6274 20.0001ZM28.1246 2.56928L29.6426 2.35943C30.8333 2.20204 31.7101 2.85782 31.8671 4.18252L32.8485 13.3242L31.8278 13.4685C30.6371 13.6259 29.8127 12.957 29.6033 11.6454L28.1246 2.56928ZM32.3382 19.3575C31.1736 19.5149 30.0744 18.6754 29.9174 17.5081C29.7603 16.3408 30.5978 15.2391 31.7624 15.0817C32.927 14.9243 34.0262 15.7637 34.1832 16.931C34.3533 18.0983 33.5159 19.2001 32.3382 19.3575ZM54.7537 10.9765C52.817 10.9765 51.8487 12.5897 51.8487 14.8194C51.8487 17.5081 52.8301 19.1214 55.0547 19.1214C57.0044 19.1214 57.9597 17.5081 57.9597 15.3047C57.9597 12.5897 56.9651 10.9765 54.7537 10.9765Z" fill="url(#paint0_linear_59766_797)"/>
<defs>
<linearGradient id="paint0_linear_59766_797" x1="0.0143867" y1="12.5373" x2="111.404" y2="12.5373" gradientUnits="userSpaceOnUse">
<stop stop-color="#F49E00"/>
<stop offset="0.3" stop-color="#E4261B"/>
<stop offset="0.6" stop-color="#9E1AAA"/>
<stop offset="0.85" stop-color="#5813A9"/>
<stop offset="1" stop-color="#4C3FFC"/>
</linearGradient>
</defs>
</svg>
