<svg width="1081" height="1123" viewBox="0 0 1081 1123" fill="none" xmlns="http://www.w3.org/2000/svg">
<path d="M1080.78 501.663C1080.78 586.853 929.335 666.785 889.369 736.199C848.351 807.191 860.446 852.416 763.161 893.433C663.773 935.502 601.195 1071.18 498.651 1119.56C421.349 1155.84 374.021 831.381 294.089 831.381C192.071 831.381 173.14 798.251 132.122 727.259C92.157 658.371 0.130005 587.379 0.130005 502.189C0.130005 416.999 109.51 352.317 149.476 283.429C190.493 212.437 133.174 112.523 229.933 26.2809C311.443 -46.2885 431.34 55.2035 516.53 55.2035C601.72 55.2035 705.842 14.7119 774.73 54.6777C845.722 95.6952 814.696 214.015 855.714 285.006C896.731 353.369 1080.78 416.473 1080.78 501.663Z" stroke="#E65796" stroke-width="0.26" stroke-miterlimit="10" stroke-linecap="round"/>
<path d="M876.748 720.95C837.834 789.313 845.722 832.434 753.696 872.4C660.092 912.891 600.669 1041.73 502.858 1086.96C428.185 1121.14 382.961 817.184 306.184 817.184C208.899 817.709 192.071 782.476 152.105 714.64C113.191 648.907 24.8461 583.699 24.3201 501.664C23.7941 420.155 123.709 357.577 161.045 291.318C199.959 222.956 146.847 125.671 238.348 44.1617C316.176 -24.7267 431.34 69.4031 512.849 68.8773C594.359 68.3514 695.325 28.3857 761.584 65.7221C829.946 104.636 803.127 218.749 842.567 286.585C881.481 352.319 1056.07 414.897 1056.59 496.406C1057.65 578.441 914.611 654.691 876.748 720.95Z" stroke="#E65796" stroke-width="0.39" stroke-miterlimit="10" stroke-linecap="round"/>
<path d="M864.127 706.226C827.316 771.96 830.471 812.977 743.703 851.891C655.358 891.331 599.616 1012.81 506.012 1054.35C433.443 1086.43 391.373 802.46 316.7 803.512C224.148 804.563 208.898 767.227 170.51 703.071C133.173 640.493 48.509 580.545 47.457 502.716C46.405 424.888 136.329 364.414 172.087 300.258C208.898 234.525 159.992 140.395 246.76 63.0932C320.381 -2.11407 431.339 84.6537 509.693 83.602C587.521 82.5503 684.806 42.5845 748.436 78.3433C814.169 115.154 791.031 225.059 829.419 289.741C866.756 352.319 1032.4 413.845 1033.46 491.673C1034.51 568.976 899.885 642.071 864.127 706.226Z" stroke="#E65796" stroke-width="0.5199" stroke-miterlimit="10" stroke-linecap="round"/>
<path d="M851.507 690.975C816.799 754.079 815.748 793.519 734.239 830.33C651.152 868.192 599.617 982.831 509.694 1021.22C439.754 1051.2 400.314 787.734 327.745 788.786C239.925 790.364 226.779 750.924 189.442 689.923C153.157 630.501 72.6998 576.336 71.1218 502.189C69.5448 428.042 149.476 369.145 183.132 308.145C217.839 245.041 173.14 153.541 254.649 80.9715C324.064 18.9193 431.34 99.3767 505.487 97.7991C579.634 96.2215 673.238 56.7816 734.765 90.437C797.868 125.144 778.937 230.843 815.748 291.843C852.033 351.266 1008.21 412.266 1009.79 486.413C1011.37 560.035 885.162 629.449 851.507 690.975Z" stroke="#E65796" stroke-width="0.6499" stroke-miterlimit="10" stroke-linecap="round"/>
<path d="M838.886 675.727C806.282 736.202 801.024 773.538 724.247 809.297C646.419 846.108 598.565 953.384 513.375 988.617C445.538 1016.49 408.728 773.012 338.788 774.59C255.701 776.168 244.132 735.15 208.373 677.305C173.14 621.037 96.8899 572.658 94.7859 502.192C92.6829 432.252 163.149 374.932 194.701 316.035C227.304 255.561 186.813 167.215 263.063 98.8531C328.27 40.482 431.34 113.577 501.806 111.474C571.746 109.37 662.195 69.9305 721.092 101.482C781.567 134.086 766.316 235.578 802.075 293.423C837.308 349.691 984.025 410.165 986.128 480.631C988.232 551.097 870.438 617.356 838.886 675.727Z" stroke="#E65796" stroke-width="0.7799" stroke-miterlimit="10" stroke-linecap="round"/>
<path d="M826.264 661.001C796.29 718.846 785.772 754.079 714.781 788.786C642.211 824.019 598.564 924.459 517.055 956.011C451.848 981.253 417.667 758.286 349.83 760.389C272.002 762.493 262.01 719.372 227.829 665.208C194.174 612.095 121.604 569.5 118.975 502.715C116.346 436.456 176.82 381.24 206.269 324.973C236.243 267.127 199.958 181.411 271.476 118.308C333.002 63.6178 431.865 129.351 498.124 126.722C564.383 124.092 651.151 85.1782 707.944 114.627C765.79 144.601 754.746 242.938 788.928 297.102C822.583 350.214 960.36 409.637 962.989 476.422C964.567 542.155 855.713 604.733 826.264 661.001Z" stroke="#E65796" stroke-width="0.9099" stroke-miterlimit="10" stroke-linecap="round"/>
<path d="M813.645 645.75C785.774 700.966 771.05 734.621 704.791 767.751C637.48 801.406 597.514 895.01 520.212 923.407C457.634 946.545 425.556 744.087 360.349 746.19C287.254 748.82 278.84 703.595 246.236 652.586C213.633 602.629 144.744 565.818 141.589 502.715C138.434 440.137 189.443 386.498 216.262 332.86C244.133 277.644 212.055 194.557 278.314 136.186C335.633 85.1778 430.289 144.074 493.393 140.919C555.971 137.764 639.584 98.8503 693.222 126.195C748.438 154.066 741.602 248.196 774.205 299.205C806.809 349.162 934.594 408.059 938.275 471.163C941.43 533.215 840.99 592.112 813.645 645.75Z" stroke="#E65796" stroke-width="1.0399" stroke-miterlimit="10" stroke-linecap="round"/>
<path d="M801.024 631.027C775.257 683.613 755.8 715.165 695.325 746.717C633.273 779.321 596.988 865.037 524.419 890.804C463.944 911.839 435.022 729.364 371.918 731.993C303.555 735.148 297.245 687.82 265.693 640.492C234.141 593.69 169.459 562.138 165.778 503.241C162.097 444.344 203.115 392.81 228.356 341.801C254.124 289.214 226.253 209.283 287.253 155.118C340.366 107.265 431.341 159.325 490.238 155.644C549.135 151.963 629.066 113.575 680.075 138.817C732.661 164.584 729.506 254.507 761.058 302.361C792.61 349.163 910.93 407.534 914.611 466.431C918.292 524.276 826.266 579.492 801.024 631.027Z" stroke="#E65796" stroke-width="1.1699" stroke-miterlimit="10" stroke-linecap="round"/>
<path d="M788.404 615.779C764.74 665.21 741.076 695.184 685.86 725.685C629.067 756.711 596.989 835.59 528.101 857.677C470.256 876.608 443.437 714.116 382.962 717.271C319.332 720.426 315.125 671.52 284.625 627.348C254.651 583.701 193.65 557.933 189.443 502.718C185.236 448.028 216.263 398.07 239.401 349.165C263.065 299.734 239.401 221.905 295.142 172.474C344.574 128.302 430.816 173 486.032 168.793C540.722 164.586 617.498 126.198 666.403 149.336C715.835 173 717.412 258.716 747.387 302.889C777.361 346.535 886.741 404.381 890.948 459.597C895.155 515.338 811.542 566.873 788.404 615.779Z" stroke="#E65796" stroke-width="1.2999" stroke-miterlimit="10" stroke-linecap="round"/>
<path d="M775.782 600.527C754.221 647.33 726.35 675.727 675.867 704.65C624.332 734.624 595.936 806.142 531.254 825.073C475.512 841.375 451.848 699.917 394.003 703.598C335.106 707.279 332.477 656.269 303.554 615.778C274.632 575.286 217.838 555.303 213.106 503.768C208.373 452.759 229.933 404.381 250.968 358.63C272.528 311.828 253.071 237.154 303.554 191.93C348.779 151.438 430.814 189.301 482.875 184.568C533.884 179.835 606.979 141.973 653.255 163.007C700.057 184.568 705.316 266.604 734.764 307.096C763.687 347.587 863.601 404.38 868.334 456.44C872.015 506.398 796.29 554.777 775.782 600.527Z" stroke="#E65796" stroke-width="1.4299" stroke-miterlimit="10" stroke-linecap="round"/>
<path d="M763.161 585.805C744.23 629.978 711.1 656.271 666.402 684.142C620.126 712.538 595.41 776.694 534.935 792.996C481.823 807.194 460.262 685.719 405.047 689.926C350.882 694.133 350.357 641.021 322.486 603.684C294.615 566.348 242.028 552.149 236.77 503.77C231.511 456.442 243.08 410.166 262.011 366.519C280.942 322.346 266.218 250.303 311.443 209.811C352.46 173 430.814 203.501 478.668 198.242C525.996 192.983 595.936 155.121 639.583 174.052C683.755 192.983 693.221 271.337 721.092 308.674C748.963 346.01 839.412 402.278 844.67 450.131C848.877 497.459 781.566 542.158 763.161 585.805Z" stroke="#E65796" stroke-width="1.5598" stroke-miterlimit="10" stroke-linecap="round"/>
<path d="M750.015 570.551C733.188 612.095 695.851 636.285 655.885 662.578C614.868 689.397 593.833 746.716 538.091 759.863C487.082 771.958 468.677 670.466 415.565 675.199C366.659 679.406 367.185 624.716 340.892 590.534C314.598 556.353 265.693 547.413 259.383 503.241C253.598 459.594 255.701 415.421 272.003 374.403C288.831 332.86 278.314 263.446 318.279 227.687C355.09 194.032 429.237 218.221 473.41 211.911C517.057 206.127 583.316 168.79 624.333 185.618C665.877 202.445 679.549 276.592 705.842 310.774C732.136 344.955 813.645 400.697 819.43 444.869C825.74 488.516 766.843 529.534 750.015 570.551Z" stroke="#E65796" stroke-width="1.6898" stroke-miterlimit="10" stroke-linecap="round"/>
<path d="M737.394 555.825C722.669 594.739 680.6 617.351 646.419 642.067C611.186 667.835 593.832 717.266 541.772 727.257C492.866 736.723 477.616 655.74 426.607 660.998C382.434 665.731 385.064 608.938 360.348 578.437C335.106 547.411 289.882 544.256 283.571 503.765C277.261 464.325 269.373 421.204 284.097 382.815C298.822 343.901 292.511 277.642 327.218 246.09C360.348 216.116 430.288 232.944 470.254 226.633C509.694 220.323 572.798 183.512 611.712 197.711C650.626 212.435 667.979 282.375 693.221 313.401C718.462 344.427 789.98 399.117 796.816 439.609C802.075 479.575 752.118 516.911 737.394 555.825Z" stroke="#E65796" stroke-width="1.8198" stroke-miterlimit="10" stroke-linecap="round"/>
<path d="M724.773 540.579C712.152 576.863 665.876 597.372 636.428 621.036C606.453 645.226 592.781 687.295 544.927 694.657C498.651 701.493 485.504 641.019 437.125 646.803C397.685 651.536 402.417 593.165 378.753 565.82C354.564 537.949 313.546 540.579 306.71 503.768C299.874 468.009 281.994 426.992 294.615 391.233C307.236 354.948 305.132 291.318 334.581 264.499C363.503 238.206 429.237 247.671 466.047 240.835C501.806 233.999 561.229 197.188 597.514 209.809C633.798 222.43 655.359 288.163 679.023 316.034C703.213 343.905 765.265 398.069 772.627 434.88C778.937 470.638 737.394 504.294 724.773 540.579Z" stroke="#E65796" stroke-width="1.9498" stroke-miterlimit="10" stroke-linecap="round"/>
<path d="M712.151 525.325C701.634 558.981 651.151 577.386 626.961 599.998C602.246 623.136 592.254 657.317 549.133 662.05C504.96 666.257 494.969 626.291 448.693 632.602C413.986 637.335 420.296 577.386 398.21 553.722C375.072 529.006 338.261 537.42 330.899 504.291C323.537 472.213 296.192 433.299 306.709 399.643C317.226 365.988 319.33 304.987 343.52 282.901C368.235 259.763 429.762 262.918 462.891 255.03C494.969 247.668 551.237 211.383 584.366 221.375C618.021 231.892 643.263 293.944 665.875 317.608C689.013 342.324 741.6 395.962 748.962 429.092C755.798 461.169 722.669 492.196 712.151 525.325Z" stroke="#E65796" stroke-width="2.0798" stroke-miterlimit="10" stroke-linecap="round"/>
</svg>
