<svg width="900" height="882" viewBox="0 0 900 882" fill="none" xmlns="http://www.w3.org/2000/svg">
<path d="M131.848 21.7046C48.2809 93.2881 129.869 247.592 118.374 399.503C103.783 585.561 -51.6431 720.785 19.6328 804.877C91.2163 888.444 347.797 749.062 449.802 756.683C551.806 764.304 752.282 934.716 836.374 863.44C919.941 791.857 799.956 555.109 807.578 453.105C815.199 351.1 948.822 154.442 877.239 70.8741C805.655 -12.6933 590.713 86.9345 488.781 86.4067C380.28 86.2587 215.94 -49.5713 131.848 21.7046Z" stroke="white" stroke-width="2.0492" stroke-miterlimit="10"/>
<path d="M151.518 37.4666C70.9363 105.16 146.933 253.365 134.009 398.093C118.079 575.609 -32.2078 703.269 35.1777 784.375C102.871 864.957 349.318 734.441 446.635 742.84C543.953 751.239 733.843 916.855 814.732 848.638C895.314 780.945 783.146 553.715 792.378 456.181C800.777 358.863 930.437 172.573 863.051 91.4666C795.358 10.8851 589.32 103.746 491.549 102.132C388.26 101.514 232.624 -29.9189 151.518 37.4666Z" stroke="white" stroke-width="2.0492" stroke-miterlimit="10"/>
<path d="M171.187 53.2282C93.0666 116.723 164.305 258.613 150.168 396.989C132.9 565.965 -12.2482 686.061 51.2468 764.181C114.742 842.301 351.363 720.127 444.211 730.137C536.842 739.314 715.929 899.302 794.049 835.807C872.169 772.312 767.601 553.769 777.303 461.446C786.481 368.815 913.01 192.676 849.515 114.556C786.02 36.4354 588.052 122.746 494.969 120.354C395.932 117.293 249.307 -10.2668 171.187 53.2282Z" stroke="white" stroke-width="2.0492" stroke-miterlimit="10"/>
<path d="M190.857 68.9889C115.722 128.594 181.894 264.692 166.328 395.884C147.721 556.319 7.71228 668.851 67.3168 743.986C126.921 819.12 353.933 706.12 441.57 716.6C529.206 727.08 698.323 881.223 773.15 822.143C848.284 762.539 751.533 553.514 762.321 465.353C772.584 376.884 894.842 211.639 835.238 136.504C775.633 61.3697 586.568 140.912 497.647 137.435C403.912 132.547 265.991 9.38434 190.857 68.9889Z" stroke="white" stroke-width="2.0492" stroke-miterlimit="10"/>
<path d="M210.001 84.4435C138.16 139.633 198.433 270.158 181.962 394.474C161.709 546.892 27.6719 651.643 82.8612 723.484C138.05 795.325 355.146 692.024 438.928 703.065C522.71 714.106 679.884 863.362 752.557 807.956C824.398 752.767 736.079 552.211 747.337 469.261C758.378 385.479 876.981 230.078 821.267 157.93C766.078 86.0884 584.559 158.773 500.94 153.469C411.584 148.327 282.675 29.037 210.001 84.4435Z" stroke="white" stroke-width="2.0492" stroke-miterlimit="10"/>
<path d="M229.671 100.205C160.291 151.197 215.497 275.931 198.122 393.37C176.529 537.248 47.632 634.435 98.9308 703.29C149.922 772.67 357.191 677.711 436.287 689.529C515.382 701.348 662.277 845.284 731.132 793.986C800.512 742.994 720.011 551.957 731.83 472.862C743.648 393.766 858.595 248.209 807.297 179.354C756.305 109.974 583.382 176.416 503.925 170.026C419.564 163.582 299.358 48.6891 229.671 100.205Z" stroke="white" stroke-width="2.0492" stroke-miterlimit="10"/>
<path d="M249.648 115.442C183.254 162.543 233.393 281.486 214.589 391.742C191.658 527.078 67.8999 616.702 115.308 682.571C162.409 748.965 360.069 663.18 434.478 675.776C508.886 688.373 644.979 826.681 711.373 779.581C777.767 732.48 705.082 550.961 717.679 476.553C730.276 402.144 841.26 266.956 794.159 200.562C747.058 134.168 582.514 193.534 507.743 186.366C427.544 178.836 316.042 68.3412 249.648 115.442Z" stroke="white" stroke-width="2.0492" stroke-miterlimit="10"/>
<path d="M269.317 131.206C205.909 174.416 250.764 286.736 230.44 391.165C205.862 518.485 87.8591 599.495 130.762 663.428C173.972 726.836 361.498 649.917 431.22 663.292C500.942 676.667 626.449 810.179 689.857 766.969C753.265 723.759 688.705 551.234 702.08 481.512C715.454 411.79 822.783 286.445 779.573 223.037C736.362 159.629 580.721 212.229 510.112 203.975C435.215 194.617 332.725 87.995 269.317 131.206Z" stroke="white" stroke-width="2.0492" stroke-miterlimit="10"/>
<path d="M288.461 146.66C228.039 185.98 267.303 292.202 246.074 389.754C220.158 508.533 107.818 582.287 146.306 642.926C184.793 703.566 363.543 635.604 428.578 649.757C493.613 663.909 608.317 791.794 668.739 752.474C729.161 713.154 672.419 550.148 686.571 485.113C700.724 420.078 804.397 304.577 765.077 244.155C725.757 183.733 578.494 229.257 512.572 220.225C443.194 209.872 349.1 108.173 288.461 146.66Z" stroke="white" stroke-width="2.0492" stroke-miterlimit="10"/>
<path d="M308.131 162.421C250.478 197.018 284.367 297.974 262.234 388.65C234.979 498.888 127.779 565.078 162.376 622.732C196.973 680.385 365.281 621.815 425.937 636.221C486.285 651.151 590.186 773.408 647.84 738.811C705.493 704.214 656.658 549.369 671.588 489.02C686.519 428.672 786.229 323.54 751.632 265.887C717.035 208.233 577.318 246.899 516.39 236.565C451.391 225.959 365.784 127.824 308.131 162.421Z" stroke="white" stroke-width="2.0492" stroke-miterlimit="10"/>
<path d="M327.801 178.182C273.133 208.889 301.956 304.054 278.394 387.546C249.492 489.767 147.739 547.869 178.445 602.536C209.152 657.204 367.327 607.5 423.513 623.516C479.174 639.225 572.49 756.686 627.465 725.455C682.132 694.748 641.114 549.421 656.823 493.76C672.531 438.099 768.585 342.81 737.879 288.143C707.172 233.475 576.359 265.374 519.593 253.954C459.371 241.213 382.468 147.476 327.801 178.182Z" stroke="white" stroke-width="2.0492" stroke-miterlimit="10"/>
<path d="M347.471 193.943C295.789 220.76 319.021 309.827 294.553 386.442C264.313 480.122 168.224 530.968 194.516 582.342C221.332 634.024 369.897 593.494 420.872 609.98C472.371 626.775 554.359 738.3 606.566 711.792C658.247 684.975 625.046 549.167 641.84 497.668C658.634 446.168 750.417 361.773 723.909 309.567C697.4 257.361 574.658 282.709 522.579 270.511C467.044 256.992 399.152 167.127 347.471 193.943Z" stroke="white" stroke-width="2.0492" stroke-miterlimit="10"/>
<path d="M366.921 208.875C317.701 231.493 335.866 314.769 310.494 384.509C278.915 469.647 187.965 512.929 210.366 561.317C232.984 610.538 371.724 578.35 418.536 595.922C465.349 613.494 537.059 719.699 585.447 697.298C634.667 674.68 609.066 547.558 626.638 500.746C644.21 453.933 732.338 379.382 710.245 330.469C687.627 281.248 573.787 299.829 525.87 286.546C475.022 272.249 415.834 186.782 366.921 208.875Z" stroke="white" stroke-width="2.0492" stroke-miterlimit="10"/>
<path d="M386.591 224.635C340.664 242.838 353.239 320.016 326.654 383.404C293.736 460.002 207.926 495.72 226.436 541.122C244.639 587.049 374.294 564.343 415.896 582.385C458.329 600.211 518.621 701.837 564.855 683.11C610.782 664.907 593.83 547.086 611.656 504.653C629.481 462.219 714.478 397.82 695.967 352.417C677.764 306.49 571.471 318.213 528.332 302.794C483.003 287.502 432.518 206.433 386.591 224.635Z" stroke="white" stroke-width="2.0492" stroke-miterlimit="10"/>
<path d="M406.26 240.399C363.319 254.711 370.826 326.098 342.813 382.302C308.248 450.883 227.885 478.513 242.198 521.454C256.51 564.395 375.724 551.08 413.471 569.684C451.217 588.287 501.231 684.593 544.172 670.281C587.113 655.968 578.285 547.141 596.889 509.395C615.492 471.648 697.05 417.925 682.213 374.676C667.901 331.735 570.511 336.69 531.533 320.186C490.674 303.283 449.201 226.086 406.26 240.399Z" stroke="white" stroke-width="2.0492" stroke-miterlimit="10"/>
</svg>
