<?xml version="1.0" encoding="UTF-8"?>
<svg xmlns="http://www.w3.org/2000/svg" width="152" height="23" viewBox="0 0 152 23" fill="none">
  <path d="M23.9655 8.7337C23.8828 8.47794 23.6629 8.29156 23.398 8.25294L15.9579 7.16677L12.6305 0.393733C12.5121 0.152624 12.2676 0 12 0C11.7324 0 11.488 0.152624 11.3695 0.393733L8.04198 7.16677L0.602007 8.25294C0.337211 8.29156 0.117134 8.47794 0.0344468 8.73365C-0.0482872 8.98941 0.0207125 9.27012 0.212384 9.45778L5.59586 14.7299L4.32518 22.1742C4.2799 22.4393 4.38837 22.707 4.60488 22.8651C4.72736 22.9545 4.87244 23 5.01822 23C5.13016 23 5.24247 22.9732 5.34531 22.9189L12 19.404L18.6544 22.9188C18.8913 23.0439 19.1784 23.0231 19.3949 22.8651C19.6114 22.707 19.7199 22.4392 19.6747 22.1742L18.4036 14.7299L23.7876 9.45773C23.9793 9.27012 24.0483 8.9894 23.9655 8.7337Z" fill="#FBBC05"></path>
  <path d="M55.9655 8.7337C55.8828 8.47794 55.6629 8.29156 55.398 8.25294L47.9579 7.16677L44.6305 0.393733C44.5121 0.152624 44.2676 0 44 0C43.7324 0 43.488 0.152624 43.3695 0.393733L40.042 7.16677L32.602 8.25294C32.3372 8.29156 32.1171 8.47794 32.0344 8.73365C31.9517 8.98941 32.0207 9.27012 32.2124 9.45778L37.5959 14.7299L36.3252 22.1742C36.2799 22.4393 36.3884 22.707 36.6049 22.8651C36.7274 22.9545 36.8724 23 37.0182 23C37.1302 23 37.2425 22.9732 37.3453 22.9189L44 19.404L50.6544 22.9188C50.8913 23.0439 51.1783 23.0231 51.3949 22.8651C51.6114 22.707 51.7199 22.4392 51.6747 22.1742L50.4036 14.7299L55.7876 9.45773C55.9793 9.27012 56.0483 8.9894 55.9655 8.7337Z" fill="#FBBC05"></path>
  <path d="M87.9655 8.7337C87.8828 8.47794 87.6629 8.29156 87.398 8.25294L79.9579 7.16677L76.6305 0.393733C76.5121 0.152624 76.2676 0 76 0C75.7324 0 75.488 0.152624 75.3695 0.393733L72.042 7.16677L64.602 8.25294C64.3372 8.29156 64.1171 8.47794 64.0344 8.73365C63.9517 8.98941 64.0207 9.27012 64.2124 9.45778L69.5959 14.7299L68.3252 22.1742C68.2799 22.4393 68.3884 22.707 68.6049 22.8651C68.7274 22.9545 68.8724 23 69.0182 23C69.1302 23 69.2425 22.9732 69.3453 22.9189L76 19.404L82.6544 22.9188C82.8913 23.0439 83.1784 23.0231 83.3949 22.8651C83.6114 22.707 83.7199 22.4392 83.6747 22.1742L82.4036 14.7299L87.7876 9.45773C87.9793 9.27012 88.0483 8.9894 87.9655 8.7337Z" fill="#FBBC05"></path>
  <path d="M119.966 8.7337C119.883 8.47794 119.663 8.29156 119.398 8.25294L111.958 7.16677L108.631 0.393733C108.512 0.152624 108.268 0 108 0C107.732 0 107.488 0.152624 107.37 0.393733L104.042 7.16677L96.602 8.25294C96.3372 8.29156 96.1171 8.47794 96.0344 8.73365C95.9517 8.98941 96.0207 9.27012 96.2124 9.45778L101.596 14.7299L100.325 22.1742C100.28 22.4393 100.388 22.707 100.605 22.8651C100.727 22.9545 100.872 23 101.018 23C101.13 23 101.242 22.9732 101.345 22.9189L108 19.404L114.654 22.9188C114.891 23.0439 115.178 23.0231 115.395 22.8651C115.611 22.707 115.72 22.4392 115.675 22.1742L114.404 14.7299L119.788 9.45773C119.979 9.27012 120.048 8.9894 119.966 8.7337Z" fill="#FBBC05"></path>
  <path d="M151.966 8.7337C151.883 8.47794 151.663 8.29156 151.398 8.25294L143.958 7.16677L140.631 0.393733C140.512 0.152624 140.268 0 140 0C139.732 0 139.488 0.152624 139.37 0.393733L136.042 7.16677L128.602 8.25294C128.337 8.29156 128.117 8.47794 128.034 8.73365C127.952 8.98941 128.021 9.27012 128.212 9.45778L133.596 14.7299L132.325 22.1742C132.28 22.4393 132.388 22.707 132.605 22.8651C132.727 22.9545 132.872 23 133.018 23C133.13 23 133.242 22.9732 133.345 22.9189L140 19.404L146.654 22.9188C146.891 23.0439 147.178 23.0231 147.395 22.8651C147.611 22.707 147.72 22.4392 147.675 22.1742L146.404 14.7299L151.788 9.45773C151.979 9.27012 152.048 8.9894 151.966 8.7337Z" fill="#FBBC05"></path>
</svg>
