<svg width="24" height="19" viewBox="0 0 24 19" fill="none" xmlns="http://www.w3.org/2000/svg">
<path d="M10.6151 9.45064C11.0057 9.77047 11.4951 9.94522 12 9.94522C12.5049 9.94522 12.9943 9.77047 13.3849 9.45064L22.9677 1.57891C22.5625 1.08716 22.0539 0.690742 21.4781 0.417847C20.9024 0.144953 20.2735 0.00228815 19.6364 0H4.36364C3.72647 0.00228815 3.09763 0.144953 2.52185 0.417847C1.94607 0.690742 1.4375 1.08716 1.03232 1.57891L10.6151 9.45064Z" fill="#E65796"/>
<path d="M14.7699 11.1371C13.9882 11.7761 13.0096 12.1252 12 12.1252C10.9904 12.1252 10.0118 11.7761 9.23012 11.1371L0.0756436 3.61703C0.0287807 3.86323 0.00347036 4.11304 0 4.36364V14.1818C0.00123305 15.3387 0.461368 16.4479 1.27944 17.266C2.09751 18.0841 3.20671 18.5442 4.36364 18.5455H19.6364C20.7933 18.5442 21.9025 18.0841 22.7206 17.266C23.5386 16.4479 23.9988 15.3387 24 14.1818V4.36364C23.9965 4.11304 23.9712 3.86323 23.9244 3.61703L14.7699 11.1371Z" fill="#E65796"/>
</svg>
